#!OML:ASF F:\VICON\USERDATA\INSTALL\rory3\rory3.ASF
:FULLY-SPECIFIED
:DEGREES
26
root 0.7219958201307959 17.83604843936086 2.587830649520079 -1.3917641117338104 1.122967325901378 4.033323218663982
lfemur 9.38066904780814 -1.944128097496404 -28.103192165501554
ltibia 17.00200545838981
lfoot -16.252544381520963 1.6713430173660193
ltoes -1.8843127482904207
rfemur -26.993461614131334 6.252534167778749 15.4448004596713
rtibia 21.04012811564445
rfoot -7.539030097439402 -15.721633151944248
rtoes -1.7065189729458745
lowerback 9.556192488033384 -0.7238988215264685 -4.9972044794769985
upperback 0.37675131642739346 -1.5338527186842188 0.7237099071533337
thorax -4.785257598476986 -0.6309613710939083 3.624601187492895
lowerneck -16.912875972748203 -2.82539756142326 -2.249015057628313
upperneck 21.006006761822754 -3.525628862870137 0.773471931115308
head 9.494069523343684 -1.7426995077983212 0.20052238995850385
lclavicle -2.314411431135445e-15 -9.50802894396158e-17
lhumerus -22.4019045555822 -5.186868753022718 82.56925068844644
lradius 29.564896022510553
lwrist 7.068862151386517
lhand -27.350401558355404 27.796067937381935
lfingers 7.1250199999999975
lthumb -0.7584919386056219 57.77412980273023
rclavicle -2.314411431135445e-15 -9.50802894396158e-17
rhumerus -30.60442168906305 -20.43403324252897 -77.9140513829752
rradius 22.3501897783651
rwrist 7.407314920292754
rhand -17.140687548992748 22.817392277141934
rfingers 7.1250199999999975
rthumb 9.099381353477604 -7.061088357442133
27
root 0.5887727822369118 17.747018997744583 4.2868523621140815 -1.1710048916761848 1.7682633856809966 3.7593315690196127
lfemur 11.889002995669706 -2.8300945620970825 -27.441634997117717
ltibia 17.446801355508825
lfoot -15.695343211958782 0.5321618982799872
ltoes -5.715206674574275
rfemur -26.948796601701076 6.669357093720224 15.544609688864703
rtibia 17.770987233311658
rfoot -8.444986900463105 -14.699510099204986
rtoes -2.7915350901387863
lowerback 9.443298131236087 -1.0320932573011246 -5.157191487374193
upperback 0.32162798574124063 -1.9231653682745686 0.9548382255957013
thorax -4.774498298290726 -0.8229945103551523 3.915171464018135
lowerneck -17.124208726670158 -2.8283723504827547 -2.2192588043280805
upperneck 20.875335259186393 -3.535305389760652 0.7548918139525405
head 9.464613666069548 -1.7411116485669162 0.18289229439074733
lclavicle -2.7103552524536207e-15 -3.588718248305246e-16
lhumerus -21.654438080904548 -5.305996272371912 82.5114104008165
lradius 30.59946570274381
lwrist 7.484946208298785
lhand -28.15090157874473 26.070502792182992
lfingers 7.1250199999999975
lthumb -1.531580820529963 56.03895120528476
rclavicle -2.7103552524536207e-15 -3.588718248305246e-16
rhumerus -31.38919120832983 -22.26160667921561 -77.09947585004447
rradius 21.544596928772332
rwrist 8.999125073787985
rhand -17.569283282818823 22.729161253529586
rfingers 7.1250199999999975
rthumb 8.685756604990093 -7.156021819009146
28
root 0.4757607013488738 17.708679347168733 7.227342689632337 -1.2331975127821064 2.072042837181873 3.2185715212357393
lfemur 13.732185209354636 -3.744575519131564 -26.429167247510385
ltibia 20.60486673567857
lfoot -13.0346255092261 -1.4223699988861653
ltoes -10.961087652106194
rfemur -26.613027756708707 5.938291016861262 17.19949539338237
rtibia 22.17198749774694
rfoot -7.021430734726055 -10.851214087155443
rtoes -1.9928330284642688
lowerback 9.52209770590021 -1.083421339053941 -4.575950623802283
upperback 0.31394887073382816 -1.9145642423097344 1.3030082816097932
thorax -4.800429919586002 -0.828725582021364 4.007704764257552
lowerneck -17.265834112368843 -2.768805698927041 -2.170861202693996
upperneck 20.933398425834948 -3.4416769366283844 0.5937432632786903
head 9.510985336544021 -1.7059797006449027 0.15023193407043017
lclavicle -2.205063087467179e-15 -2.098062361576766e-17
lhumerus -21.624729539937285 -4.322634514250408 82.8039683999244
lradius 31.162609233571956
lwrist 7.678943081882634
lhand -29.1092918155241 24.58539114196234
lfingers 7.1250199999999975
lthumb -2.4571627035004258 54.54597208579525
rclavicle -2.205063087467179e-15 -2.098062361576766e-17
rhumerus -31.973134576871985 -23.946925136733434 -75.85815573682412
rradius 20.660036084532056
rwrist 10.577140521006521
rhand -17.615930278095966 22.383148997160628
rfingers 7.1250199999999975
rthumb 8.640722789960902 -7.340811727640119
29
root 0.375864754368081 17.72470238093895 8.312752052400239 -1.626437002694054 1.9791826421040666 1.7361498216296551
lfemur 13.406581666037916 -4.180067547199981 -24.31895089324378
ltibia 27.54137712513637
lfoot -7.32011655330864 -5.053929376343156
ltoes -14.832934092052305
rfemur -25.953194242794538 5.428318513075772 19.89813196148134
rtibia 27.504683010924566
rfoot -5.368964052988241 -6.528389020009531
rtoes 1.5641391482438753
lowerback 9.626279541745687 -1.150748023710289 -3.3708637128630317
upperback 0.27618704496790103 -1.8349699812287041 1.8067245528594889
thorax -4.885049973992065 -0.8108784469700238 3.9065369765315356
lowerneck -17.307439307257848 -2.6764193738700426 -2.05276200137886
upperneck 21.08415213787114 -3.27847673689929 0.2816433340812454
head 9.56005264032245 -1.6549566785931074 0.07782740484555184
lclavicle -2.0583915302519918e-15 7.800790202836451e-17
lhumerus -22.51764018608762 -3.4458376491664406 83.22153078142702
lradius 31.567480638454967
lwrist 7.817011021419052
lhand -29.331683540372136 23.939775896679
lfingers 7.1250199999999975
lthumb -2.6719374840447765 53.89517940434388
rclavicle -2.0583915302519918e-15 7.800790202836451e-17
rhumerus -32.80854540250163 -25.881636021423315 -74.49453311651698
rradius 19.775437855090843
rwrist 12.29865544391045
rhand -17.641432664036596 22.077209531295903
rfingers 7.1250199999999975
rthumb 8.616116559160691 -7.791265077865037
30
root 0.2528177889940464 17.797157637904608 9.166653079409677 -2.1765006962968556 1.627205004761775 -0.1258427847168173
lfemur 10.08352370223649 -3.902446544315279 -21.670712374226024
ltibia 37.73053695118094
lfoot 0.06863910045968868 -9.322896344609664
ltoes -16.117201281949644
rfemur -24.979260423924526 5.0459665040886845 22.688041952798944
rtibia 31.5906567276636
rfoot -4.716748543237276 -4.1503012288036025
rtoes 5.615965425540735
lowerback 9.710741135920408 -1.2215688107777325 -1.9897595035418776
upperback 0.29641505680078734 -1.752858409675277 2.338441660945197
thorax -4.956318972948737 -0.7917205832332409 3.5805843943429276
lowerneck -17.146938080447978 -2.6094940719913784 -2.007053698738121
upperneck 21.28321630510717 -3.17394181322721 0.025776112665344297
head 9.597051556025228 -1.6240845223168456 0.013531651240767606
lclavicle -2.5377781507838508e-15 -2.4120064928434917e-16
lhumerus -23.98553873086934 -2.68599156727095 83.63925025609275
lradius 31.117440880855664
lwrist 7.284371270821141
lhand -28.96316446276786 24.083048028137977
lfingers 7.1250199999999975
lthumb -2.316055079409488 54.03718956965511
rclavicle -2.5377781507838508e-15 -2.4120064928434917e-16
rhumerus -33.32430951881579 -27.274920719430007 -73.71268383340696
rradius 18.969877271046606
rwrist 13.537535747493145
rhand -17.430823866466696 22.0789494282351
rfingers 7.1250199999999975
rthumb 8.81937101195317 -7.65558585023357
31
root 0.11665913866938188 17.91477570821816 9.800487111841628 -2.7900074236679013 1.5612900040315227 -2.211124361528071
lfemur 4.177401249768732 -2.8599244889744275 -18.555146327527694
ltibia 49.115462953734394
lfoot 8.098981313314876 -13.862006023711723
ltoes -12.271049089002023
rfemur -22.176434333750677 5.315352839864818 25.394311442497965
rtibia 32.50600330183286
rfoot -5.889399615617005 -4.207132196744715
rtoes 8.92941541010444
lowerback 9.854272700410261 -1.1811629967854236 -0.42578523607885477
upperback 0.2659687387645935 -1.4778033578800458 2.773987564953142
thorax -5.093038457852114 -0.6851739273287539 3.036887559515384
lowerneck -16.99845460373585 -2.641540872084133 -1.9259702509784806
upperneck 21.429906357262475 -3.228934927774918 -0.036671882397138034
head 9.621349242239909 -1.6491222269695949 -0.027388533282495825
lclavicle -3.134851251892527e-15 -6.408713508748164e-16
lhumerus -26.121967709003137 -2.8103428188339175 84.19344178274338
lradius 30.500591032474077
lwrist 6.78075815595537
lhand -27.796746499263147 24.397580412375667
lfingers 7.1250199999999975
lthumb -1.1895506939120684 54.35377962170023
rclavicle -3.134851251892527e-15 -6.408713508748164e-16
rhumerus -33.2905965292597 -26.79560800874166 -73.93151929337841
rradius 18.89251756701545
rwrist 13.083164104966365
rhand -17.088750773746675 22.31688068415214
rfingers 7.1250199999999975
rthumb 9.149582944731272 -7.509614229237458
32
root -0.026036698963900817 18.050057503798293 9.456157385627542 -3.266334085176277 1.350927382549822 -3.883779355441524
lfemur -2.5487764667476194 -1.3259335726695378 -15.688445740588346
ltibia 60.03164283070322
lfoot 11.973483814234505 -15.073028699399817
ltoes -8.082549779885676
rfemur -18.700654354699928 5.71165423090073 27.89049071091194
rtibia 32.44880256761847
rfoot -7.901781090383455 -5.258225244726764
rtoes 10.458528484187758
lowerback 10.041970794390478 -0.9907552526866589 0.921100810718121
upperback 0.36947428164835333 -1.050093643516378 3.0509541854055175
thorax -5.151519248601564 -0.500611359413038 2.5047465584266924
lowerneck -16.92745289452112 -2.745410798068294 -1.8573988810135669
upperneck 21.459031767427927 -3.411134989980467 0.19484951919879878
head 9.620294266223572 -1.71194029248194 0.00040419029500282644
lclavicle -3.4020812365316654e-15 -8.203539932852929e-16
lhumerus -27.62672032591494 -3.0912016221687884 84.59537398324616
lradius 29.608935524028222
lwrist 5.900548050547453
lhand -26.76290254024501 25.038824480748758
lfingers 7.1250199999999975
lthumb -0.1910868102460817 55.001213273926886
rclavicle -3.4020812365316654e-15 -8.203539932852929e-16
rhumerus -32.56873227053381 -25.36148699285475 -75.21398978678658
rradius 19.335620257909973
rwrist 11.898219273534554
rhand -16.817320631646844 22.950693839901724
rfingers 7.1250199999999975
rthumb 9.41152588620208 -6.938174295045826
33
root -0.13513164884432954 18.156299850635673 10.598278196688792 -3.586928836341947 0.8163462525502276 -4.998529940886636
lfemur -9.7462136993641 0.5228147647254011 -13.603235136736846
ltibia 67.98818078467706
lfoot 9.220782437166566 -12.594155661992914
ltoes -6.027514043132566
rfemur -14.494233553848252 6.023315972285337 29.899049349885438
rtibia 31.241218789995877
rfoot -10.486002699391337 -6.252240660109874
rtoes 10.330622775802002
lowerback 10.114030572299715 -0.5209528759984042 2.084293981932499
upperback 0.4965560076340446 -0.2903144700189477 3.036822714713278
thorax -5.125969593763687 -0.15221034002912848 1.7763115787497559
lowerneck -16.793326713534434 -2.9137504358342032 -1.8198709822171435
upperneck 21.490598607684664 -3.7001477607677473 0.5519060557173234
head 9.61139713086217 -1.8087460781164726 0.054213168418786734
lclavicle -3.4578708856173027e-15 -8.577068849137479e-16
lhumerus -28.87362357811064 -2.9525814893541646 84.91368195472363
lradius 28.47149371257751
lwrist 4.992431994834864
lhand -26.42236273501761 25.25610811379743
lfingers 7.1250199999999975
lthumb 0.13780226766175696 55.22548641918863
rclavicle -3.4578708856173027e-15 -8.577068849137479e-16
rhumerus -31.11330607989763 -23.157682173043163 -76.89097102897247
rradius 19.9780163919156
rwrist 10.4757951114754
rhand -16.708604433932535 23.018962977127284
rfingers 7.1250199999999975
rthumb 9.516520674608309 -6.85510271538288
